PathFileType	4	(X/Y/Z)	/Users/itak/Documents/Research/Walk-IL/dataset/trc/00193_00008.trc
DataRate	CameraRate	NumFrames	NumMarkers	Units	OrigDataRate	OrigDataStartFrame	OrigNumFrames
100.000000	100.000000	4	53	mm	100.000000	383	766
Frame#	Time	RPSI			LPSI			L3			STRN			T10			C7			CLAV			RBAK			LBAK			LSHO			LUPA			LAEL			LAOL			LWTS			LWPS			LFRA			LIFD			LHPS			LHTS			RSHO			RUPA			RAEL			RAOL			RWTS			RWPS			RFRA			RIFD			RHTS			RHPS			RBHD			LFHD			RFHD			LBHD			LHIP			RHIP			RASI			LASI			LKNE			LTHI			LANK			LTIP			LTOE			LMT1			LMT5			LHEE			RKNE			RTHI			RANK			RTIP			RTOE			RMT1			RMT5			RHEE			
		X1	Y1	Z1	X2	Y2	Z2	X3	Y3	Z3	X4	Y4	Z4	X5	Y5	Z5	X6	Y6	Z6	X7	Y7	Z7	X8	Y8	Z8	X9	Y9	Z9	X10	Y10	Z10	X11	Y11	Z11	X12	Y12	Z12	X13	Y13	Z13	X14	Y14	Z14	X15	Y15	Z15	X16	Y16	Z16	X17	Y17	Z17	X18	Y18	Z18	X19	Y19	Z19	X20	Y20	Z20	X21	Y21	Z21	X22	Y22	Z22	X23	Y23	Z23	X24	Y24	Z24	X25	Y25	Z25	X26	Y26	Z26	X27	Y27	Z27	X28	Y28	Z28	X29	Y29	Z29	X30	Y30	Z30	X31	Y31	Z31	X32	Y32	Z32	X33	Y33	Z33	X34	Y34	Z34	X35	Y35	Z35	X36	Y36	Z36	X37	Y37	Z37	X38	Y38	Z38	X39	Y39	Z39	X40	Y40	Z40	X41	Y41	Z41	X42	Y42	Z42	X43	Y43	Z43	X44	Y44	Z44	X45	Y45	Z45	X46	Y46	Z46	X47	Y47	Z47	X48	Y48	Z48	X49	Y49	Z49	X50	Y50	Z50	X51	Y51	Z51	X52	Y52	Z52	X53	Y53	Z53	

384	3.83	72.23464965820312	1013.935607910156	-714.3682250976562	82.75274658203125	1026.069213867188	-836.7159423828125	78.73967742919922	1057.148559570312	-773.4356689453125	337.3136596679688	1263.628540039062	-737.40185546875	47.00283432006836	1214.68505859375	-785.7240600585938	114.5696868896484	1483.328002929688	-779.4080200195312	312.5025024414062	1378.10400390625	-745.614501953125	30.41611289978027	1304.79345703125	-692.0103759765625	122.3838424682617	1463.133422851562	-879.9315185546875	211.4287109375	1454.171264648438	-944.114990234375	191.9314270019531	1326.277709960938	-1028.451171875	228.5903930664062	1117.15966796875	-1069.234252929688	185.0690612792969	1084.491821289062	-1001.601745605469	387.6372375488281	916.80712890625	-1063.1337890625	310.6519165039062	878.1824340820312	-1104.084716796875	263.6165161132812	1013.234619140625	-1094.126342773438	429.6588439941406	763.7474975585938	-1039.888916015625	348.1589660644531	816.3291625976562	-1107.623046875	416.0391845703125	845.8831176757812	-1092.798095703125	145.5730285644531	1452.874145507812	-591.5440673828125	108.3230209350586	1385.883056640625	-532.9163818359375	51.53260040283203	1101.307006835938	-504.8874816894531	83.49521636962891	1093.150634765625	-598.357421875	163.9851837158203	864.6246337890625	-476.9964294433594	75.96944427490234	853.7064819335938	-461.9666442871094	61.33861541748047	1028.2451171875	-480.9920349121094	170.2625122070312	674.6867065429688	-495.6734619140625	175.2985229492188	768.2670288085938	-459.2121887207031	95.33545684814453	768.387451171875	-455.5251770019531	144.0791320800781	1630.706298828125	-698.3345947265625	346.9197387695312	1697.90576171875	-735.1463623046875	291.7730102539062	1674.505981445312	-619.4999389648438	192.0438385009766	1662.278076171875	-821.8699951171875	187.7319793701172	976.8886108398438	-949.7792358398438	215.0391235351562	965.6278686523438	-580.3560180664062	300.1864624023438	997.1876831054688	-629.3104858398438	315.2655944824219	1004.002624511719	-888.4285278320312	89.53075408935547	497.1664733886719	-936.047607421875	129.8420867919922	637.0377197265625	-953.0519409179688	-175.4827117919922	84.58849334716797	-927.766357421875	-40.16361236572266	302.4236450195312	-946.040283203125	31.52392196655273	37.68396759033203	-939.7913818359375	-3.33104133605957	46.01132965087891	-886.462646484375	-88.58831787109375	36.22956085205078	-979.8662109375	-207.2688140869141	111.6325302124023	-853.6576538085938	384.2419128417969	500.98095703125	-606.1832275390625	314.0218505859375	760.384033203125	-568.32373046875	479.8982238769531	25.21549415588379	-658.5362548828125	437.4968566894531	394.4474487304688	-618.4080810546875	665.0838623046875	101.1416702270508	-577.5972900390625	648.7785034179688	82.34715270996094	-640.5777587890625	554.2864379882812	43.43367004394531	-574.2808837890625	467.4675598144531	24.781005859375	-742.9199829101562	
385	3.84	83.16265106201172	1014.905029296875	-711.509765625	94.82057952880859	1026.553466796875	-833.9603881835938	90.07389068603516	1057.662109375	-770.79150390625	347.3054809570312	1264.91357421875	-732.8531494140625	57.53684234619141	1214.724243164062	-783.42919921875	123.8100738525391	1483.7841796875	-776.6817626953125	321.9469604492188	1379.239990234375	-741.3367919921875	39.77859115600586	1304.876831054688	-689.8523559570312	132.470458984375	1463.499877929688	-877.0713500976562	222.0177154541016	1454.629150390625	-940.8009643554688	202.5393676757812	1326.201416015625	-1024.6689453125	237.6174926757812	1116.639526367188	-1063.98974609375	193.9645385742188	1084.8154296875	-995.9218139648438	392.7878723144531	913.3194580078125	-1057.893188476562	314.7915344238281	876.1445922851562	-1098.325927734375	270.6681518554688	1012.115783691406	-1088.554077148438	431.5100402832031	759.3635864257812	-1034.329956054688	350.7393188476562	813.4921264648438	-1101.855224609375	419.3714294433594	841.493408203125	-1087.333374023438	153.7585906982422	1453.335571289062	-588.4290161132812	116.0048065185547	1386.251953125	-530.2655639648438	58.65876007080078	1101.983032226562	-502.6348876953125	91.87004089355469	1093.651977539062	-595.7234497070312	170.0354309082031	864.998291015625	-473.1663818359375	81.76915740966797	854.415771484375	-459.3318481445312	68.04833221435547	1028.97216796875	-478.5686950683594	175.8605346679688	674.99267578125	-491.6797180175781	180.6742095947266	768.4730224609375	-455.119140625	100.7470321655273	769.037841796875	-452.5784912109375	152.3209533691406	1631.252319335938	-695.0411987304688	355.3835754394531	1698.95361328125	-729.5189819335938	299.1759338378906	1674.925415039062	-614.4668579101562	201.4539794921875	1663.4521484375	-817.9135131835938	200.2057495117188	977.1492919921875	-946.3914794921875	225.4947509765625	967.4490356445312	-576.6380004882812	310.8406982421875	998.6220703125	-625.1959228515625	327.4668884277344	1004.674926757812	-884.2047729492188	102.0007629394531	497.5596313476562	-935.437744140625	142.4690246582031	637.5999145507812	-951.31201171875	-172.2659301757812	90.20571899414062	-928.8784790039062	-31.69592666625977	305.0924072265625	-946.4971313476562	31.5489444732666	37.93707275390625	-939.822998046875	-2.229201316833496	46.10294342041016	-886.6389770507812	-86.96379089355469	38.08804702758789	-980.2916870117188	-203.1696624755859	118.9281539916992	-855.021728515625	393.7835083007812	501.8023376464844	-603.399169921875	324.4842529296875	761.7816162109375	-563.7474365234375	480.9009094238281	25.96841812133789	-658.9349365234375	446.3395385742188	394.6486206054688	-616.7354736328125	668.6339111328125	95.70016479492188	-577.07275390625	652.0593872070312	77.43170166015625	-640.0048828125	555.6987915039062	41.96554946899414	-574.2327270507812	468.922119140625	25.86814498901367	-743.1980590820312	
386	3.85	94.06299591064453	1016.117980957031	-708.6486206054688	106.9216766357422	1027.245971679688	-831.1754150390625	101.3412094116211	1058.430419921875	-768.1202392578125	357.2218933105469	1266.432983398438	-728.1742553710938	68.05486297607422	1215.019775390625	-781.1417846679688	133.0516967773438	1484.463134765625	-774.0008544921875	331.3374633789062	1380.612060546875	-736.9922485351562	49.11852645874023	1305.23388671875	-687.6874389648438	142.60693359375	1464.07568359375	-874.23046875	232.6509094238281	1455.286865234375	-937.4600219726562	213.2261810302734	1326.29052734375	-1020.81640625	246.6772155761719	1116.328369140625	-1058.545776367188	202.9426727294922	1085.361694335938	-990.0138549804688	397.6723937988281	909.927734375	-1052.48291015625	318.6224670410156	874.3352661132812	-1092.34423828125	277.6194458007812	1011.216430664062	-1082.768432617188	432.8905334472656	755.1105346679688	-1028.627075195312	352.9845581054688	810.8704833984375	-1095.882446289062	422.3136596679688	837.2373046875	-1081.707153320312	161.8704071044922	1454.097412109375	-585.333251953125	123.6387252807617	1386.909301757812	-527.63037109375	65.93011474609375	1102.914184570312	-500.2964172363281	100.3028945922852	1094.439331054688	-593.0147094726562	176.3857116699219	865.7164916992188	-469.2633056640625	87.88198089599609	855.4063110351562	-456.5880126953125	74.96610260009766	1029.97119140625	-476.060302734375	181.8263244628906	675.6256713867188	-487.655517578125	186.4155578613281	769.064208984375	-451.0370788574219	106.5074081420898	769.9763793945312	-449.5498046875	160.5751800537109	1632.030517578125	-691.74462890625	363.8901672363281	1700.152465820312	-723.7575073242188	306.5673522949219	1675.505981445312	-609.363525390625	210.9558563232422	1664.876098632812	-813.9119873046875	212.7667541503906	977.53759765625	-942.8378295898438	235.6874542236328	969.5457763671875	-572.7767333984375	321.2633361816406	1000.401245117188	-620.8273315429688	339.6741943359375	1005.569580078125	-879.6806640625	115.3804092407227	497.8295288085938	-934.8212280273438	155.8463287353516	638.1070556640625	-949.3992919921875	-168.4404449462891	96.26039886474609	-929.8853149414062	-22.41354942321777	307.8089294433594	-946.9465942382812	31.46791648864746	38.18648147583008	-939.82373046875	-0.9911684989929199	46.10943222045898	-886.7592163085938	-85.10115814208984	40.21981048583984	-980.7369384765625	-198.1738891601562	126.627197265625	-856.2327880859375	403.445068359375	502.9161987304688	-600.6275024414062	334.7255554199219	763.3939208984375	-559.1865844726562	481.9073791503906	26.80976486206055	-659.1956787109375	455.1850280761719	395.0337219238281	-615.0919799804688	672.1509399414062	90.87850189208984	-577.3433837890625	655.1082153320312	73.07414245605469	-640.1839599609375	557.302490234375	41.04120254516602	-574.3544921875	470.1322631835938	26.91534423828125	-743.296630859375	
387	3.86	104.8930511474609	1017.518981933594	-705.8092041015625	118.9783782958984	1028.134887695312	-828.3735961914062	112.4912948608398	1059.428466796875	-765.4326782226562	367.0278015136719	1268.181518554688	-723.3749389648438	78.53140258789062	1215.549560546875	-778.8690185546875	142.2721557617188	1485.338500976562	-771.3753051757812	340.6385498046875	1382.208374023438	-732.5870971679688	58.41173934936523	1305.836791992188	-685.5340576171875	152.7755737304688	1464.84765625	-871.420166015625	243.2982482910156	1456.143920898438	-934.0900268554688	223.9890441894531	1326.570434570312	-1016.919677734375	255.7715911865234	1116.254150390625	-1052.915649414062	212.0170593261719	1086.159423828125	-983.8916625976562	402.2994995117188	906.6785278320312	-1046.902465820312	322.1812744140625	872.80419921875	-1086.146240234375	284.4839477539062	1010.573059082031	-1076.780151367188	433.8509216308594	751.0490112304688	-1022.76513671875	354.9593505859375	808.5155639648438	-1089.699462890625	424.9239196777344	833.2056274414062	-1075.93017578125	169.8409729003906	1455.1640625	-582.294189453125	131.1734008789062	1387.872680664062	-525.0303955078125	73.33084869384766	1104.107543945312	-497.8873901367188	108.7781372070312	1095.513549804688	-590.2499389648438	183.0424499511719	866.78955078125	-465.300537109375	94.31776428222656	856.6844482421875	-453.7217102050781	82.08183288574219	1031.246337890625	-473.4738159179688	188.1560211181641	676.589599609375	-483.6052551269531	192.5239715576172	770.0283203125	-446.9655456542969	112.6273040771484	771.2101440429688	-446.4235534667969	168.832275390625	1633.028564453125	-688.4554443359375	372.4263916015625	1701.463989257812	-717.8944702148438	313.9403076171875	1676.227905273438	-604.2111206054688	220.5295715332031	1666.513549804688	-809.8788452148438	225.3534393310547	978.0601196289062	-939.12255859375	245.5770874023438	971.8182983398438	-568.7882080078125	331.4001159667969	1002.4892578125	-616.2191162109375	351.8102111816406	1006.678771972656	-874.8621215820312	129.6981048583984	497.9365234375	-934.2423095703125	170	638.518798828125	-947.338134765625	-163.914306640625	102.7698364257812	-930.7915649414062	-12.28308010101318	310.5439758300781	-947.4053344726562	31.27844047546387	38.39791870117188	-939.8206176757812	0.3953126966953278	46.02655410766602	-886.8229370117188	-82.9593505859375	42.66180419921875	-981.198486328125	-192.1766510009766	134.6978607177734	-857.29443359375	413.1191711425781	504.2103576660156	-597.8916625976562	344.7314147949219	765.121826171875	-554.7337036132812	482.9161987304688	27.66942977905273	-659.288818359375	463.907958984375	395.4941711425781	-613.4561767578125	675.5721435546875	86.67606353759766	-578.3369750976562	657.8945922851562	69.23651123046875	-641.0213623046875	559.0913696289062	40.56132888793945	-574.6239624023438	471.0625610351562	27.86929321289062	-743.2142944335938	
